<svg xmlns="http://www.w3.org/2000/svg" width="24" height="24" viewBox="0 0 24 24" role="img" aria-label="Ace of spades - dark theme">
  <title>Ace of spades - dark</title>
  <!-- Card -->
  <rect x="2" y="2" width="20" height="20" rx="3"
        fill="#000000" stroke="#E8A3B3" stroke-width="1.5"/>
  <!-- A -->
  <text x="4.5" y="8" font-size="6" font-family="Segoe UI, Arial, sans-serif"
        fill="#850016">A</text>
  <!-- Spade (center) without stem line -->
  <path d="M12 5
           C 9.2 7.9, 7.0 9.5, 6.5 11.3
           C 6.3 12.3, 7.1 13.2, 8.2 13.2
           C 9.4 13.2, 10.5 12.3, 11.0 11.3
           C 10.7 13.4, 9.9 14.9, 11.2 15.9
           C 11.6 16.1, 12.4 16.1, 12.8 15.9
           C 14.1 14.9, 13.3 13.4, 13.0 11.3
           C 13.5 12.3, 14.6 13.2, 15.8 13.2
           C 16.9 13.2, 17.7 12.3, 17.5 11.3
           C 17.0 9.5, 14.8 7.9, 12 5 Z"
        fill="#850016"/>
  <!-- Small corner spade (no stem) -->
  <g transform="translate(17,17) scale(0.4)">
    <path d="M12 5
             C 9.2 7.9, 7.0 9.5, 6.5 11.3
             C 6.3 12.3, 7.1 13.2, 8.2 13.2
             C 9.4 13.2, 10.5 12.3, 11.0 11.3
             C 10.7 13.4, 9.9 14.9, 11.2 15.9
             C 11.6 16.1, 12.4 16.1, 12.8 15.9
             C 14.1 14.9, 13.3 13.4, 13.0 11.3
             C 13.5 12.3, 14.6 13.2, 15.8 13.2
             C 16.9 13.2, 17.7 12.3, 17.5 11.3
             C 17.0 9.5, 14.8 7.9, 12 5 Z"
          fill="#850016"/>
  </g>
</svg>
